<svg xmlns="http://www.w3.org/2000/svg" xmlns:xlink="http://www.w3.org/1999/xlink" version="1.1" style="" xml:space="preserve" width="94.38709672457466" height="49.58064431776984"><rect id="backgroundrect" width="100%" height="100%" x="0" y="0" fill="none" stroke="none" class="" style=""/><g class="currentLayer" style=""><title>Layer 1</title><g id="svg_1" class=""><path d="M91.3057324886322,23.914012908935547 H75.2557324886322 C74.47973248863221,10.80601290893555 63.60773248863221,0.4140129089355469 50.304732488632204,0.4140129089355469 h-25 v9.25 H1.3057324886322021 c-0.8280000000000001,0 -1.5,0.6720000000000002 -1.5,1.5 s0.6720000000000002,1.5 1.5,1.5 h23.999 v25.499 H1.3057324886322021 c-0.8280000000000001,0 -1.5,0.6720000000000002 -1.5,1.5 c0,0.8280000000000001 0.6720000000000002,1.5 1.5,1.5 h23.999 V50.41401290893555 h25 c13.303,0 24.175,-10.392 24.951,-23.5 H91.3057324886322 c0.8280000000000001,0 1.5,-0.6720000000000002 1.5,-1.5 S92.1337324886322,23.914012908935547 91.3057324886322,23.914012908935547 zM50.304732488632204,46.41401290893555 h-21 V4.414012908935547 h21 c11.579,0 21,9.421 21,21 S61.883732488632205,46.41401290893555 50.304732488632204,46.41401290893555 z" id="svg_2"/></g><text x="0" y="115" fill="#000000" font-size="5px" font-weight="bold" font-family="'Helvetica Neue', Helvetica, Arial-Unicode, Arial, Sans-serif" id="svg_3">Created by Studio Refine</text><text x="0" y="120" fill="#000000" font-size="5px" font-weight="bold" font-family="'Helvetica Neue', Helvetica, Arial-Unicode, Arial, Sans-serif" id="svg_4">from the Noun Project</text></g></svg>