<svg xmlns="http://www.w3.org/2000/svg" xmlns:xlink="http://www.w3.org/1999/xlink" version="1.1" style="" xml:space="preserve" width="84" height="92.21212122963593"><rect id="backgroundrect" width="100%" height="100%" x="0" y="0" fill="none" stroke="none" class="" style=""/><g class="currentLayer" style=""><title>Layer 1</title><g id="svg_1" class=""><path d="M48.44619302940369,86.88775755310058 c2.871,-0.1910000000000001 5.15,-2.581 5.15,-5.5 v-8.044 v-1.5 c0,-4.181 1.7890000000000001,-8.239 4.909,-11.133 c5.501,-5.104 8.271,-12.336 7.598,-19.844 c-1.04,-11.612 -10.604,-20.975 -22.248,-21.779 c-1.146,-0.07900000000000004 -2.262,-0.07900000000000004 -3.409,0 c-11.643,0.804 -21.208,10.167 -22.248,21.779 c-0.6720000000000006,7.508 2.097,14.742 7.598,19.844 c3.119,2.894 4.908,6.9510000000000005 4.908,11.133 v1.5 v8.044 c0,2.918 2.279,5.309 5.15,5.5 C36.593193029403686,89.40075755310059 39.081193029403686,91.79875755310059 42.15019302940369,91.79875755310059 S47.70819302940369,89.40075755310059 48.44619302940369,86.88775755310058 zM33.70519302940369,77.86475755310059 h16.891000000000002 v1.521 H33.70519302940369 V77.86475755310059 zM27.836193029403688,58.51175755310059 c-4.815,-4.467 -7.239,-10.801 -6.65,-17.377 c0.91,-10.159 9.278,-18.351 19.466,-19.054 c1.007,-0.06900000000000005 1.99,-0.06900000000000005 2.996,0 c10.188,0.7030000000000003 18.556,8.895 19.466,19.054 c0.5890000000000003,6.5760000000000005 -1.834,12.91 -6.649,17.377 c-3.356,3.113 -5.424,7.359 -5.805,11.832 h-3.8810000000000002 V51.19775755310059 h1.97 c2.74,0 4.969,-2.229 4.969,-4.969 s-2.229,-4.97 -4.969,-4.97 s-4.97,2.229 -4.97,4.97 v1.969 h-3.2560000000000002 V46.228757553100586 c0,-2.74 -2.229,-4.97 -4.969,-4.97 s-4.97,2.229 -4.97,4.97 s2.229,4.969 4.97,4.969 h1.969 v19.146 h-3.8810000000000002 C33.26019302940369,65.87175755310058 31.19219302940369,61.62475755310058 27.836193029403688,58.51175755310059 zM37.52219302940369,48.19775755310059 h-1.969 c-1.086,0 -1.97,-0.8830000000000003 -1.97,-1.969 s0.8840000000000003,-1.97 1.97,-1.97 s1.969,0.8840000000000003 1.969,1.97 V48.19775755310059 zM40.52219302940369,51.19775755310059 h3.2560000000000002 v19.146 h-3.2560000000000002 V51.19775755310059 zM46.77819302940369,48.19775755310059 V46.228757553100586 c0,-1.086 0.8840000000000003,-1.97 1.97,-1.97 s1.969,0.8840000000000003 1.969,1.97 s-0.8830000000000003,1.969 -1.969,1.969 H46.77819302940369 zM50.596193029403686,73.34375755310059 v1.521 H33.70519302940369 v-1.521 H50.596193029403686 zM33.913193029403686,82.38575755310059 h16.474 c-0.3880000000000002,0.8930000000000003 -1.276,1.521 -2.31,1.521 H36.224193029403686 C35.18919302940369,83.90675755310059 34.301193029403684,83.27975755310058 33.913193029403686,82.38575755310059 zM42.15019302940369,88.79875755310059 c-1.287,0 -2.4130000000000003,-0.8970000000000004 -3.028,-1.8920000000000003 h6.057 C44.563193029403685,87.90175755310058 43.43719302940369,88.79875755310059 42.15019302940369,88.79875755310059 z" id="svg_2"/><path d="M40.560193029403685,3.388757553100586 v6.968 c0,0.8750000000000003 0.7160000000000003,1.59 1.59,1.59 c0.8750000000000003,0 1.59,-0.7160000000000003 1.59,-1.59 V3.388757553100586 c0,-0.8750000000000003 -0.7160000000000003,-1.59 -1.59,-1.59 C41.276193029403686,1.798757553100586 40.560193029403685,2.514757553100586 40.560193029403685,3.388757553100586 z" id="svg_3"/><path d="M66.54219302940369,9.874757553100586 c-0.7080000000000003,-0.514 -1.707,-0.35600000000000015 -2.221,0.35200000000000015 l-4.096,5.6370000000000005 c-0.514,0.7080000000000003 -0.35600000000000015,1.707 0.35200000000000015,2.221 c0.7080000000000003,0.514 1.707,0.35600000000000015 2.221,-0.35200000000000015 l4.096,-5.6370000000000005 C67.40719302940369,11.387757553100588 67.24919302940368,10.388757553100586 66.54219302940369,9.874757553100586 z" id="svg_4"/><path d="M81.52819302940368,30.744757553100584 c-0.27,-0.8320000000000003 -1.172,-1.291 -2.004,-1.021 l-6.627,2.153 c-0.8320000000000003,0.27 -1.291,1.172 -1.021,2.004 c0.27,0.8320000000000003 1.172,1.291 2.004,1.021 l6.627,-2.153 C81.33919302940369,32.47775755310059 81.79819302940369,31.575757553100587 81.52819302940368,30.744757553100584 z" id="svg_5"/><path d="M79.38119302940369,57.457757553100585 c0.8320000000000003,0.27 1.733,-0.18900000000000008 2.004,-1.021 c0.27,-0.8320000000000003 -0.18900000000000008,-1.733 -1.021,-2.004 l-6.627,-2.153 c-0.8320000000000003,-0.27 -1.733,0.18900000000000008 -2.004,1.021 c-0.27,0.8320000000000003 0.18900000000000008,1.733 1.021,2.004 L79.38119302940369,57.457757553100585 z" id="svg_6"/><path d="M63.94619302940369,76.78775755310059 c0.514,0.7070000000000003 1.514,0.8660000000000003 2.221,0.35200000000000015 c0.7080000000000003,-0.514 0.8660000000000003,-1.514 0.35200000000000015,-2.221 l-4.096,-5.6370000000000005 c-0.514,-0.7080000000000003 -1.514,-0.8660000000000003 -2.221,-0.35200000000000015 c-0.7070000000000003,0.514 -0.8660000000000003,1.514 -0.35200000000000015,2.221 L63.94619302940369,76.78775755310059 z" id="svg_7"/><path d="M17.296193029403685,76.86775755310059 c0.7080000000000003,0.514 1.707,0.35600000000000015 2.221,-0.35200000000000015 l4.096,-5.6370000000000005 c0.514,-0.7080000000000003 0.35600000000000015,-1.707 -0.35200000000000015,-2.221 c-0.7080000000000003,-0.514 -1.707,-0.35600000000000015 -2.221,0.35200000000000015 l-4.096,5.6370000000000005 C16.431193029403687,75.35375755310059 16.58919302940369,76.35275755310059 17.296193029403685,76.86775755310059 z" id="svg_8"/><path d="M4.314193029403686,57.01775755310059 l6.627,-2.153 c0.8320000000000003,-0.27 1.291,-1.172 1.021,-2.004 h0 c-0.27,-0.8320000000000003 -1.172,-1.291 -2.004,-1.021 l-6.627,2.153 c-0.8320000000000003,0.27 -1.291,1.172 -1.021,2.004 C2.580193029403686,56.82875755310059 3.482193029403687,57.28875755310059 4.314193029403686,57.01775755310059 z" id="svg_9"/><path d="M3.4741930294036862,32.307757553100586 l6.627,2.153 c0.8320000000000003,0.27 1.733,-0.18900000000000008 2.004,-1.021 c0.27,-0.8320000000000003 -0.18900000000000008,-1.733 -1.021,-2.004 l-6.627,-2.153 c-0.8320000000000003,-0.27 -1.733,0.18900000000000008 -2.004,1.021 C2.183193029403686,31.13575755310059 2.6421930294036873,32.03775755310058 3.4741930294036862,32.307757553100586 z" id="svg_10"/><path d="M21.414193029403688,17.460757553100585 c0.514,0.7080000000000003 1.514,0.8660000000000003 2.221,0.35200000000000015 c0.7080000000000003,-0.514 0.8660000000000003,-1.514 0.35200000000000015,-2.221 l-4.096,-5.6370000000000005 c-0.514,-0.7080000000000003 -1.514,-0.8660000000000003 -2.221,-0.35200000000000015 c-0.7080000000000003,0.514 -0.8660000000000003,1.514 -0.35200000000000015,2.221 L21.414193029403688,17.460757553100585 z" id="svg_11"/></g><text x="0" y="115" fill="#000000" font-size="5px" font-weight="bold" font-family="'Helvetica Neue', Helvetica, Arial-Unicode, Arial, Sans-serif" id="svg_12">Created by Maxim Kulikov</text><text x="0" y="120" fill="#000000" font-size="5px" font-weight="bold" font-family="'Helvetica Neue', Helvetica, Arial-Unicode, Arial, Sans-serif" id="svg_13">from the Noun Project</text></g></svg>