<svg xmlns="http://www.w3.org/2000/svg" xmlns:xlink="http://www.w3.org/1999/xlink" version="1.1" style="" xml:space="preserve" width="95.03225803474481" height="57.38709610930093"><rect id="backgroundrect" width="100%" height="100%" x="0" y="0" fill="none" stroke="none"/><g class="currentLayer" style=""><title>Layer 1</title><g id="svg_1" class=""><g style="" display="none" id="svg_2"><g style="" display="inline" id="svg_3"><path d="M33.00806450843811,8.559385620117187 L59.601064508438114,28.548385620117188 L33.00806450843811,48.53738562011719 V8.559385620117187 M29.00806450843811,0.5483856201171875 v56 L66.25806450843811,28.548385620117188 L29.00806450843811,0.5483856201171875 L29.00806450843811,0.5483856201171875 z" id="svg_4"/></g><line style="" x1="2.2580645084381104" y1="28.548385620117188" x2="29.00806450843811" y2="28.548385620117188" display="inline" fill="none" stroke="#000000" stroke-width="3" stroke-linecap="round" stroke-linejoin="round" stroke-miterlimit="10" id="svg_5"/><line style="" x1="80.75806450843811" y1="28.548385620117188" x2="92.25806450843811" y2="28.548385620117188" display="inline" fill="none" stroke="#000000" stroke-width="3" stroke-linecap="round" stroke-linejoin="round" stroke-miterlimit="10" id="svg_6"/><circle style="" cx="73.25806450843811" cy="28.548385620117188" r="7" display="inline" fill="none" stroke="#000000" stroke-width="2" stroke-miterlimit="10" id="svg_7"/></g><path d="M92.25806450843811,27.048385620117188 H81.11206450843811 C80.40706450843811,23.35238562011719 77.1560645084381,20.548385620117188 73.25806450843811,20.548385620117188 c-4.167,0 -7.596,3.203 -7.963,7.276 L29.00806450843811,0.5483856201171875 v26.5 H2.2580645084381104 c-0.8290000000000001,0 -1.5,0.6720000000000002 -1.5,1.5 s0.6710000000000002,1.5 1.5,1.5 h26.75 V56.54838562011719 l36.287,-27.276 C65.6620645084381,33.345385620117185 69.09106450843811,36.54838562011719 73.25806450843811,36.54838562011719 c3.898,0 7.149,-2.8040000000000003 7.854,-6.5 H92.25806450843811 c0.8280000000000001,0 1.5,-0.6720000000000002 1.5,-1.5 S93.08606450843811,27.048385620117188 92.25806450843811,27.048385620117188 zM33.00806450843811,48.53738562011719 V8.559385620117187 L59.601064508438114,28.548385620117188 L33.00806450843811,48.53738562011719 zM73.25806450843811,34.54838562011719 c-3.309,0 -6,-2.6910000000000003 -6,-6 s2.6910000000000003,-6 6,-6 s6,2.6910000000000003 6,6 S76.56706450843811,34.54838562011719 73.25806450843811,34.54838562011719 z" id="svg_8"/></g><text x="0" y="115" fill="#000000" font-size="5px" font-weight="bold" font-family="'Helvetica Neue', Helvetica, Arial-Unicode, Arial, Sans-serif" id="svg_9">Created by Studio Refine</text><text x="0" y="120" fill="#000000" font-size="5px" font-weight="bold" font-family="'Helvetica Neue', Helvetica, Arial-Unicode, Arial, Sans-serif" id="svg_10">from the Noun Project</text></g></svg>