<svg xmlns="http://www.w3.org/2000/svg" xmlns:xlink="http://www.w3.org/1999/xlink" version="1.1" style="enable-background:new 0 0 100 100;" xml:space="preserve" width="96.77419344914944" height="53.70967522620157"><rect id="backgroundrect" width="100%" height="100%" x="0" y="0" fill="none" stroke="none"/><g class="currentLayer" style=""><title>Layer 1</title><g id="svg_1" class=""><g style="" display="none" id="svg_2"><g style="" display="inline" id="svg_3"><path d="M47.86996774578095,6.580644607543945 c11.579,0 21,9.421 21,21 s-9.421,21 -21,21 H30.668967745780947 c2.973,-4.98 6.201,-12.375 6.201,-21 s-3.228,-16.02 -6.201,-21 H47.86996774578095 M47.86996774578095,2.5806446075439453 h-25 c0,0 10.001,10.75 10.001,25 S22.869967745780944,52.580644607543945 22.869967745780944,52.580644607543945 h25 c13.807,0 25,-11.193 25,-25 S61.67696774578094,2.5806446075439453 47.86996774578095,2.5806446075439453 L47.86996774578095,2.5806446075439453 z" id="svg_4"/></g><g style="" display="inline" id="svg_5"><line style="" x1="3.870967745780945" y1="13.330644607543945" x2="30.86996829509735" y2="13.330644607543945" fill="none" stroke="#000000" stroke-width="3" stroke-linecap="round" stroke-linejoin="round" stroke-miterlimit="10" id="svg_6"/></g><g style="" display="inline" id="svg_7"><line style="" x1="3.870967745780945" y1="41.830644607543945" x2="30.86996829509735" y2="41.830644607543945" fill="none" stroke="#000000" stroke-width="3" stroke-linecap="round" stroke-linejoin="round" stroke-miterlimit="10" id="svg_8"/></g><g style="" display="inline" id="svg_9"><line style="" x1="93.87096774578094" y1="27.580644607543945" x2="70.87196719646454" y2="27.580644607543945" fill="none" stroke="#000000" stroke-width="3" stroke-linecap="round" stroke-linejoin="round" stroke-miterlimit="10" id="svg_10"/></g></g><path d="M93.87096774578094,26.080644607543945 H72.82096774578095 C72.04496774578095,12.972644607543948 61.172967745780944,2.5806446075439453 47.86996774578095,2.5806446075439453 h-25 c0,0 3.291,3.543 6.097,9.25 H3.870967745780945 c-0.8280000000000001,0 -1.5,0.6720000000000002 -1.5,1.5 s0.6720000000000002,1.5 1.5,1.5 h26.429 c1.469,3.6910000000000003 2.571,8.026 2.571,12.75 c0,4.724 -1.101,9.059 -2.571,12.749 H3.870967745780945 c-0.8280000000000001,0 -1.5,0.6720000000000002 -1.5,1.5 c0,0.8280000000000001 0.6720000000000002,1.5 1.5,1.5 h25.096 C26.159967745780946,49.03764460754394 22.869967745780944,52.580644607543945 22.869967745780944,52.580644607543945 h25 c13.303,0 24.175,-10.392 24.951,-23.5 H93.87096774578094 c0.8280000000000001,0 1.5,-0.6720000000000002 1.5,-1.5 S94.69896774578095,26.080644607543945 93.87096774578094,26.080644607543945 zM47.86996774578095,48.580644607543945 H30.668967745780947 c2.973,-4.98 6.201,-12.375 6.201,-21 s-3.228,-16.02 -6.201,-21 h17.201 c11.579,0 21,9.421 21,21 S59.44896774578095,48.580644607543945 47.86996774578095,48.580644607543945 z" id="svg_11"/></g><text x="0" y="115" fill="#000000" font-size="5px" font-weight="bold" font-family="'Helvetica Neue', Helvetica, Arial-Unicode, Arial, Sans-serif" id="svg_12">Created by Studio Refine</text><text x="0" y="120" fill="#000000" font-size="5px" font-weight="bold" font-family="'Helvetica Neue', Helvetica, Arial-Unicode, Arial, Sans-serif" id="svg_13">from the Noun Project</text></g></svg>